<?xml version="1.0" standalone="no"?>
<!DOCTYPE svg PUBLIC "-//W3C//DTD SVG 1.1//EN" "http://www.w3.org/Graphics/SVG/1.1/DTD/svg11.dtd">
<svg xmlns="http://www.w3.org/2000/svg" id="Layer_1" version="1.1" viewBox="0 0 223.43 216" width="223.42999267578125" height="216">
  <!-- Generator: Adobe Illustrator 29.6.1, SVG Export Plug-In . SVG Version: 2.1.1 Build 9)  -->
  <defs>
    <style>
      .st0 {
        fill: #fff;
      }

      .st1 {
        fill: #012169;
      }
    </style>
  </defs>
  <g>
    <polygon class="st1" points="69.27 149.93 63.33 149.93 63.33 178.55 84.09 178.55 84.09 173.22 69.27 173.22 69.27 149.93"/>
    <polygon class="st1" points="138.82 164.89 131.91 149.97 131.2 149.97 124.3 164.85 118.99 149.97 112.66 149.97 123.14 178.4 123.21 178.59 124.1 178.59 131.57 162.63 138.97 178.55 139.9 178.55 150.57 149.97 144.24 149.97 138.82 164.89"/>
    <polygon class="st1" points="153.17 178.55 174.4 178.55 174.4 173.14 159.12 173.14 159.12 167.14 172.67 167.14 172.67 161.69 159.12 161.69 159.12 155.26 174.4 155.26 174.4 149.93 153.17 149.93 153.17 178.55"/>
    <polygon class="st1" points="185.15 149.93 179.2 149.93 179.2 178.55 199.97 178.55 199.97 173.22 185.15 173.22 185.15 149.93"/>
    <polygon class="st1" points="208.61 149.93 202.66 149.93 202.66 178.55 223.43 178.55 223.43 173.22 208.61 173.22 208.61 149.93"/>
    <path class="st1" d="M44.77,195.58c0,.38-.07.77-.2,1.16-.13.39-.32.74-.56,1.05-.24.3-.55.55-.9.73-.35.18-.78.28-1.26.28h-6.3v-6.08h6.68c.33,0,.65.08.96.24.31.16.59.37.82.63.23.26.42.56.56.91.14.35.21.71.21,1.09M45.92,207.17c0,.42-.08.84-.25,1.25-.17.42-.4.8-.68,1.15-.28.34-.61.61-.98.81-.36.19-.76.29-1.17.29h-7.29v-6.54h6.72c1.14,0,2.05.3,2.7.88.65.59.96,1.29.96,2.16M49.95,202.79c-.56-.61-1.2-1.1-1.9-1.46-.27-.14-.54-.25-.81-.34.22-.09.43-.21.63-.34.59-.39,1.1-.87,1.51-1.43.41-.56.74-1.18.98-1.84.24-.67.36-1.31.36-1.9,0-1.62-.23-2.97-.67-4.01-.45-1.05-1.07-1.89-1.85-2.5-.77-.6-1.69-1.02-2.72-1.24-1.01-.22-2.1-.33-3.24-.33h-12.62v28.62h13.24c1.22,0,2.38-.14,3.46-.43,1.1-.29,2.07-.78,2.89-1.45.82-.68,1.48-1.57,1.96-2.67.47-1.09.71-2.43.71-3.99,0-.9-.18-1.77-.54-2.56-.36-.79-.82-1.5-1.37-2.1"/>
    <path class="st1" d="M71.03,206.34h-7.08l3.56-7.49,3.53,7.49ZM67.06,187.42l-14.62,28.58h6.48l2.14-4.4h12.85l2.18,4.4h6.48l-14.62-28.58h-.89Z"/>
    <polygon class="st1" points="104.03 203.98 86.09 187.5 86.01 187.42 85.03 187.42 85.03 216 90.98 216 90.98 199.71 109 216 109.97 216 109.97 187.42 104.03 187.42 104.03 203.98"/>
    <polygon class="st1" points="139.65 187.42 132.31 187.42 121.6 201.08 121.6 187.38 115.66 187.38 115.66 216 121.6 216 121.6 203.7 132.94 216 140.82 216 127.9 202.17 139.65 187.42"/>
    <polygon class="st1" points="143.38 216 164.61 216 164.61 210.59 149.32 210.59 149.32 204.59 162.88 204.59 162.88 199.14 149.32 199.14 149.32 192.71 164.61 192.71 164.61 187.38 143.38 187.38 143.38 216"/>
    <path class="st1" d="M185.13,200.66c-.38.37-.81.64-1.29.82-.49.18-.96.27-1.41.27h-7.08v-9.03h7.08c.88,0,1.59.17,2.1.49.52.33.92.74,1.2,1.21.29.48.48.99.57,1.51.1.54.15,1.02.15,1.4,0,.75-.13,1.4-.38,1.95-.25.55-.57,1.02-.95,1.39M175.36,207.08h4.86c1.04,1.49,2.09,2.97,3.12,4.4,1.07,1.48,2.18,2.97,3.29,4.41l.09.11h7.11l-.34-.46c-2.21-3.05-4.49-6.12-6.76-9.12,1.65-.72,3-1.85,4.02-3.37,1.09-1.63,1.64-3.55,1.64-5.72,0-1.43-.25-2.78-.73-3.99-.49-1.22-1.17-2.28-2.04-3.16-.87-.88-1.93-1.57-3.15-2.06-1.22-.48-2.58-.73-4.04-.73h-13.03v28.62h5.94v-8.92Z"/>
    <path class="st1" d="M25.43,153.94c-.91-.92-1.93-1.72-3.03-2.38-1.1-.66-2.31-1.18-3.59-1.54-1.28-.36-2.63-.55-4-.55-2.02,0-3.96.39-5.75,1.17-1.79.78-3.37,1.85-4.7,3.18-1.33,1.34-2.41,2.92-3.18,4.7-.78,1.79-1.17,3.72-1.17,5.75s.39,3.96,1.17,5.75c.78,1.79,1.85,3.37,3.18,4.7,1.33,1.33,2.92,2.41,4.7,3.18,1.79.78,3.72,1.17,5.75,1.17,1.37,0,2.72-.18,4-.55,1.28-.36,2.49-.88,3.59-1.54,1.1-.66,2.12-1.46,3.03-2.38.91-.92,1.68-1.97,2.31-3.11l.16-.29-5.54-2.24-.13.2c-.4.59-.87,1.17-1.4,1.7-.53.53-1.12,1-1.77,1.39-.64.39-1.33.71-2.04.93-.71.22-1.45.33-2.21.33-1.23,0-2.39-.25-3.46-.76-1.07-.51-2.02-1.19-2.8-2.02-.79-.84-1.43-1.83-1.9-2.94-.47-1.11-.7-2.29-.7-3.52s.24-2.39.71-3.51c.47-1.12,1.11-2.12,1.9-2.96.79-.84,1.73-1.52,2.8-2.02,1.07-.5,2.23-.76,3.46-.76.76,0,1.5.11,2.21.33.71.22,1.4.53,2.04.93.64.4,1.24.86,1.77,1.38.53.52,1,1.08,1.4,1.68l.13.2,5.54-2.24-.16-.29c-.62-1.12-1.4-2.15-2.31-3.07"/>
    <path class="st1" d="M53.22,164.24c0,1.23-.24,2.42-.7,3.53-.47,1.11-1.11,2.11-1.91,2.96-.8.85-1.75,1.54-2.82,2.04-1.06.5-2.22.76-3.45.76s-2.39-.25-3.45-.76c-1.07-.51-2.02-1.19-2.82-2.04-.8-.85-1.44-1.85-1.91-2.96-.47-1.11-.7-2.29-.7-3.53s.24-2.39.7-3.51c.47-1.12,1.11-2.12,1.91-2.96.8-.84,1.75-1.52,2.82-2.02,1.06-.5,2.22-.76,3.45-.76s2.38.25,3.45.76c1.07.51,2.02,1.19,2.82,2.02.8.84,1.44,1.83,1.91,2.96.47,1.12.7,2.3.7,3.51M54.81,153.75c-1.34-1.34-2.92-2.41-4.7-3.18-1.79-.78-3.74-1.17-5.78-1.17s-3.96.39-5.75,1.17c-1.79.78-3.37,1.85-4.7,3.18-1.34,1.34-2.41,2.93-3.18,4.72-.78,1.8-1.17,3.74-1.17,5.76s.39,4,1.17,5.78c.78,1.79,1.85,3.37,3.18,4.7,1.33,1.33,2.92,2.4,4.7,3.18,1.79.78,3.72,1.17,5.75,1.17s3.99-.39,5.78-1.17c1.79-.78,3.37-1.85,4.7-3.18,1.34-1.34,2.41-2.92,3.18-4.7.78-1.79,1.17-3.74,1.17-5.78s-.39-3.96-1.17-5.76c-.78-1.8-1.85-3.39-3.18-4.72"/>
    <path class="st1" d="M106.51,164.28c0,1.89-.26,3.44-.78,4.59-.52,1.15-1.18,2.06-1.97,2.71-.79.64-1.68,1.08-2.66,1.3-1,.22-1.99.34-2.96.34h-5.42v-17.88h5.42c.94,0,1.93.11,2.92.34.97.22,1.87.65,2.68,1.28.8.63,1.47,1.54,1.98,2.7.52,1.17.78,2.72.78,4.61M108.19,153.53c-2.62-2.39-6.01-3.6-10.06-3.6h-11.34v28.62h11.34c2.01,0,3.89-.3,5.58-.9,1.7-.6,3.21-1.49,4.48-2.66,1.4-1.27,2.48-2.84,3.19-4.65.71-1.8,1.07-3.85,1.07-6.1s-.36-4.26-1.07-6.06c-.71-1.81-1.79-3.37-3.19-4.65"/>
  </g>
  <g>
    <rect class="st1" x="45.43" width="132.58" height="132.58"/>
    <path class="st0" d="M52.51,125.5h118.41V7.08H52.51v118.41ZM172.27,126.85H51.16V5.73h121.12v121.12Z"/>
    <polygon class="st0" points="127.97 45.1 137.26 38.9 146.56 45.1 143.53 34.34 152.31 27.42 141.14 26.97 137.26 16.48 133.39 26.97 122.22 27.42 131 34.34 127.97 45.1"/>
    <path class="st0" d="M144.52,84.89c-1.55-2.11-3.52-3.76-5.88-4.91,1.72-1.21,3.13-2.75,4.21-4.6,1.58-2.69,2.38-5.65,2.38-8.81,0-1.97-.35-3.95-1.03-5.88-.69-1.94-1.68-3.7-2.93-5.22-1.27-1.54-2.83-2.81-4.64-3.78-1.85-.99-3.94-1.49-6.2-1.49h-30.6v27.66c-3.03.16-5.88-.41-8.4-1.7-1.31-.67-2.49-1.51-3.61-2.44-.85-.72-1.68-1.48-2.41-2.34-1.71-2.01-3.06-4.36-4.02-6.98-.96-2.62-1.44-5.42-1.44-8.33,0-2.61.41-5.24,1.22-7.81.8-2.55,2.01-4.88,3.61-6.92,1.58-2.02,3.56-3.67,5.89-4.93,3.35-1.8,7.65-2.37,12.24-1.39,1.41.3,2.81.81,4.14,1.52,1.33.71,2.58,1.65,3.71,2.8,1.12,1.15,2.11,2.61,2.92,4.33l.68,1.45,8.24-5.34-.53-1.11c-1.93-4.03-4.91-7.34-8.87-9.84-3.96-2.5-8.75-3.77-14.23-3.77-4.6,0-8.79.91-12.45,2.71-3.62,1.78-6.74,4.16-9.25,7.08-2.5,2.91-4.43,6.23-5.72,9.87-1.29,3.64-1.94,7.34-1.94,11.01,0,3.9.71,7.78,2.11,11.53,1.4,3.75,3.41,7.15,5.96,10.11,2.56,2.96,5.63,5.39,9.13,7.23.32.17.66.29.98.44.21.1.41.19.62.28.63.27,1.26.52,1.91.74.43.15.87.28,1.31.41.66.19,1.33.34,2.01.48.45.09.91.16,1.37.23,1.15.16,2.33.24,3.54.24.41,0,.84,0,1.26-.03,1.97-.09,3.99-.41,6.03-.93,2.47-.63,4.84-1.56,7.06-2.77.84-.45,1.64-.95,2.42-1.49.52-.36,1.02-.73,1.51-1.13.73-.59,1.43-1.22,2.1-1.88.45-.45.87-.92,1.28-1.41.4-.49.78-.99,1.13-1.52.71-1.05,1.31-2.17,1.82-3.35l.36-.93-.88-.79h.01s-6.33-5.82-6.33-5.82c0,0-.65,1.49-1,2.17-.36.68-1.1,1.88-1.62,2.56-.75.99-1.38,1.74-2.2,2.56-.46.46-.96.87-1.45,1.27v-14.48h17.79c1.02,0,1.95.2,2.85.62.88.41,1.64.98,2.25,1.7.63.76,1.15,1.67,1.53,2.72.39,1.06.58,2.2.58,3.41,0,1.14-.2,2.23-.61,3.25-.41,1.03-.96,1.93-1.64,2.68-.68.75-1.47,1.34-2.42,1.79-.9.43-1.92.65-3.04.65h-2.68c-.3.54-.62,1.07-.97,1.59-.81,1.2-1.73,2.32-2.75,3.35-1.35,1.34-2.83,2.56-4.42,3.62-.26.17-.15.28-.01.28h13.15c1.09,0,2.11.23,3.02.68.93.46,1.74,1.1,2.41,1.89.69.81,1.25,1.77,1.66,2.85.41,1.08.61,2.21.61,3.36s-.21,2.24-.64,3.28c-.42,1.03-1.02,1.96-1.78,2.74-.77.79-1.66,1.43-2.66,1.9-.96.46-2.04.69-3.2.69h-19.03v-14.38c-1.15.43-2.32.8-3.51,1.11-2.08.53-4.24.84-6.6.96-.04,0-.09,0-.14,0v21.56h29.27c2.52,0,4.91-.39,7.11-1.15,2.22-.77,4.21-1.88,5.9-3.31,1.71-1.44,3.08-3.21,4.08-5.26,1-2.05,1.51-4.35,1.51-6.82,0-3.92-1.08-7.39-3.2-10.3"/>
  </g>
  <path class="st0" d="M146.84,111.8c-1.19,0-2.03-.89-2.03-2.06,0-1.24.94-2.07,2.03-2.07s2.02.82,2.02,2.07-.94,2.06-2.02,2.06ZM146.84,108.03c-.89,0-1.59.7-1.59,1.71,0,.94.61,1.71,1.59,1.71.88,0,1.58-.7,1.58-1.71s-.7-1.71-1.58-1.71ZM146.43,110.92h-.38v-2.29h.87c.55,0,.83.19.83.66,0,.41-.25.59-.6.62l.64,1h-.43l-.59-.98h-.35v.98ZM146.85,109.62c.28,0,.53-.03.53-.36,0-.28-.27-.31-.5-.31h-.45v.67h.42Z"/>
</svg>