<?xml version="1.0" standalone="no"?>
<!DOCTYPE svg PUBLIC "-//W3C//DTD SVG 1.1//EN" "http://www.w3.org/Graphics/SVG/1.1/DTD/svg11.dtd">
<svg xmlns="http://www.w3.org/2000/svg" id="Layer_1" version="1.1" viewBox="0 0 164.83 164.83" width="164.8300018310547" height="164.8300018310547">
  <!-- Generator: Adobe Illustrator 29.6.1, SVG Export Plug-In . SVG Version: 2.1.1 Build 9)  -->
  <defs>
    <style>
      .st0 {
        fill: #fff;
      }

      .st1 {
        fill: #012169;
      }
    </style>
  </defs>
  <g>
    <rect class="st1" width="164.83" height="164.83"/>
    <path class="st0" d="M8.8,156.03h147.22V8.8H8.8v147.22ZM157.71,157.71H7.12V7.12h150.59v150.59Z"/>
    <polygon class="st0" points="102.62 56.08 114.18 48.36 125.74 56.08 121.98 42.7 132.89 34.09 119 33.53 114.18 20.49 109.36 33.53 95.47 34.09 106.39 42.7 102.62 56.08"/>
    <path class="st0" d="M123.2,105.54c-1.93-2.62-4.37-4.67-7.3-6.11,2.14-1.51,3.89-3.42,5.24-5.71,1.97-3.34,2.96-7.03,2.96-10.96,0-2.45-.43-4.91-1.28-7.31-.86-2.41-2.08-4.59-3.64-6.49-1.58-1.92-3.52-3.5-5.77-4.7-2.3-1.23-4.9-1.85-7.71-1.85h-38.04v34.39c-3.77.2-7.31-.51-10.45-2.11-1.62-.83-3.1-1.88-4.49-3.04-1.06-.89-2.08-1.84-3-2.92-2.12-2.5-3.8-5.43-4.99-8.68-1.19-3.25-1.8-6.74-1.8-10.35,0-3.24.51-6.51,1.52-9.71.99-3.18,2.5-6.07,4.49-8.6,1.97-2.51,4.43-4.57,7.32-6.12,4.17-2.24,9.51-2.95,15.22-1.73,1.75.37,3.49,1.01,5.15,1.89,1.66.88,3.21,2.05,4.61,3.48,1.4,1.43,2.62,3.25,3.63,5.39l.85,1.8,10.25-6.64-.66-1.38c-2.39-5.01-6.1-9.12-11.02-12.24-4.93-3.11-10.88-4.69-17.69-4.69-5.72,0-10.93,1.13-15.47,3.37-4.51,2.22-8.38,5.18-11.5,8.81-3.11,3.61-5.5,7.75-7.11,12.28-1.6,4.52-2.41,9.13-2.41,13.69,0,4.84.88,9.67,2.63,14.34,1.74,4.66,4.24,8.89,7.41,12.56,3.18,3.68,7,6.7,11.36,8.99.4.21.82.36,1.22.55.26.12.51.24.77.35.78.34,1.57.65,2.37.92.54.18,1.08.35,1.62.51.82.23,1.65.43,2.5.59.56.11,1.13.2,1.71.28,1.43.2,2.9.3,4.4.3.51,0,1.05,0,1.57-.03,2.45-.12,4.96-.5,7.5-1.15,3.07-.78,6.02-1.95,8.78-3.45,1.04-.57,2.04-1.18,3.01-1.85.64-.45,1.27-.91,1.88-1.4.91-.73,1.78-1.51,2.61-2.34.56-.56,1.09-1.14,1.59-1.75.5-.61.97-1.24,1.41-1.89.88-1.31,1.63-2.7,2.26-4.17l.45-1.16-1.09-.98h.02s-7.87-7.24-7.87-7.24c0,0-.81,1.85-1.25,2.7-.44.85-1.37,2.34-2.01,3.18-.93,1.23-1.71,2.16-2.73,3.19-.58.57-1.19,1.08-1.8,1.58v-18.01h22.12c1.27,0,2.43.25,3.54.77,1.1.5,2.04,1.22,2.79,2.11.79.94,1.43,2.08,1.9,3.38.48,1.31.72,2.74.72,4.24,0,1.42-.25,2.78-.75,4.04-.51,1.28-1.19,2.39-2.04,3.33-.85.94-1.83,1.66-3.01,2.22-1.12.53-2.39.81-3.77.81h-3.34c-.38.67-.78,1.33-1.21,1.97-1,1.49-2.15,2.88-3.43,4.16-1.67,1.67-3.52,3.18-5.49,4.5-.32.22-.18.35-.02.35h16.35c1.36,0,2.62.28,3.75.85,1.16.58,2.17,1.37,3,2.35.86,1.01,1.55,2.2,2.06,3.55.5,1.34.76,2.75.76,4.17s-.27,2.78-.8,4.08c-.52,1.29-1.27,2.43-2.21,3.41-.95.98-2.07,1.78-3.31,2.37-1.19.57-2.53.86-3.98.86h-23.66v-17.88c-1.43.54-2.88,1-4.36,1.38-2.59.66-5.27,1.05-8.2,1.19-.05,0-.11,0-.17.01v26.8h36.4c3.13,0,6.11-.48,8.85-1.43,2.76-.96,5.23-2.34,7.34-4.12,2.13-1.79,3.83-3.99,5.07-6.53,1.24-2.55,1.87-5.41,1.87-8.47,0-4.88-1.34-9.19-3.98-12.8"/>
  </g>
  <path class="st0" d="M126.05,139c-1.48,0-2.53-1.11-2.53-2.57,0-1.54,1.17-2.57,2.53-2.57s2.51,1.02,2.51,2.57-1.17,2.57-2.51,2.57ZM126.05,134.31c-1.11,0-1.98.87-1.98,2.12,0,1.17.75,2.12,1.98,2.12,1.1,0,1.96-.87,1.96-2.12s-.86-2.12-1.96-2.12ZM125.54,137.9h-.47v-2.84h1.08c.69,0,1.04.24,1.04.82,0,.51-.32.73-.74.78l.8,1.25h-.53l-.73-1.22h-.44v1.22ZM126.07,136.29c.35,0,.66-.03.66-.45,0-.34-.34-.38-.62-.38h-.56v.83h.52Z"/>
</svg>