<?xml version="1.0" standalone="no"?>
<!DOCTYPE svg PUBLIC "-//W3C//DTD SVG 1.1//EN" "http://www.w3.org/Graphics/SVG/1.1/DTD/svg11.dtd">
<svg xmlns="http://www.w3.org/2000/svg" id="Layer_1" version="1.1" viewBox="0 0 501.63 222.7" width="501.6300048828125" height="222.6999969482422">
  <!-- Generator: Adobe Illustrator 29.6.1, SVG Export Plug-In . SVG Version: 2.1.1 Build 9)  -->
  <defs>
    <style>
      .st0 {
        fill: #fff;
      }

      .st1 {
        fill: #012169;
      }
    </style>
  </defs>
  <g>
    <polygon class="st1" points="86.12 186.46 78.73 186.46 78.73 222.03 104.55 222.03 104.55 215.41 86.12 215.41 86.12 186.46"/>
    <polygon class="st1" points="172.58 205.06 164 186.5 163.11 186.5 154.53 205 147.93 186.5 140.06 186.5 153.09 221.84 153.18 222.08 154.28 222.08 163.57 202.25 172.77 222.03 173.92 222.03 187.19 186.5 179.32 186.5 172.58 205.06"/>
    <polygon class="st1" points="190.43 222.03 216.81 222.03 216.81 215.31 197.82 215.31 197.82 207.85 214.67 207.85 214.67 201.07 197.82 201.07 197.82 193.09 216.81 193.09 216.81 186.46 190.43 186.46 190.43 222.03"/>
    <polygon class="st1" points="230.18 186.46 222.79 186.46 222.79 222.03 248.61 222.03 248.61 215.41 230.18 215.41 230.18 186.46"/>
    <polygon class="st1" points="259.35 186.46 251.96 186.46 251.96 222.03 277.77 222.03 277.77 215.41 259.35 215.41 259.35 186.46"/>
    <path class="st1" d="M316.32,196.65c0,.47-.08.95-.24,1.44-.16.48-.4.92-.7,1.3-.3.37-.68.68-1.12.91-.44.23-.97.34-1.57.34h-7.83v-7.56h8.3c.41,0,.81.1,1.19.29.39.2.73.47,1.02.78.29.32.52.7.69,1.14.17.43.26.89.26,1.35M317.75,211.05c0,.52-.1,1.04-.31,1.56-.21.52-.49,1-.85,1.43-.35.42-.76.76-1.22,1.01-.45.24-.94.36-1.45.36h-9.07v-8.13h8.35c1.42,0,2.55.37,3.35,1.1.8.73,1.19,1.61,1.19,2.68M322.76,205.61c-.69-.76-1.49-1.37-2.36-1.81-.33-.17-.67-.31-1.01-.43.27-.12.53-.26.78-.42.73-.48,1.36-1.08,1.88-1.78.51-.69.92-1.46,1.22-2.29.3-.83.45-1.63.45-2.37,0-2.01-.28-3.69-.84-4.99-.56-1.31-1.34-2.35-2.3-3.1-.96-.75-2.1-1.27-3.38-1.55-1.26-.28-2.62-.41-4.03-.41h-15.69v35.58h16.46c1.52,0,2.96-.18,4.31-.53,1.36-.36,2.57-.97,3.59-1.8,1.02-.84,1.84-1.96,2.44-3.32.59-1.35.89-3.02.89-4.96,0-1.12-.23-2.2-.67-3.19-.44-.98-1.02-1.86-1.71-2.61"/>
    <path class="st1" d="M348.97,210.03h-8.81l4.42-9.31,4.38,9.31ZM344.03,186.5l-18.18,35.53h8.06l2.67-5.48h15.98l2.71,5.48h8.06l-18.18-35.53h-1.11Z"/>
    <polygon class="st1" points="389.99 207.09 367.7 186.6 367.59 186.5 366.37 186.5 366.37 222.03 373.76 222.03 373.76 201.78 396.17 222.03 397.38 222.03 397.38 186.5 389.99 186.5 389.99 207.09"/>
    <polygon class="st1" points="434.27 186.5 425.15 186.5 411.84 203.48 411.84 186.46 404.45 186.46 404.45 222.03 411.84 222.03 411.84 206.74 425.93 222.03 435.73 222.03 419.66 204.85 434.27 186.5"/>
    <polygon class="st1" points="438.91 222.03 465.3 222.03 465.3 215.31 446.3 215.31 446.3 207.85 463.16 207.85 463.16 201.07 446.3 201.07 446.3 193.09 465.3 193.09 465.3 186.46 438.91 186.46 438.91 222.03"/>
    <path class="st1" d="M490.82,202.96c-.47.45-1.01.8-1.6,1.01-.61.22-1.2.34-1.75.34h-8.8v-11.23h8.8c1.09,0,1.97.21,2.61.61.64.41,1.15.92,1.5,1.5.36.59.6,1.23.71,1.88.12.68.18,1.26.18,1.74,0,.93-.16,1.74-.47,2.42-.31.68-.71,1.26-1.18,1.72M478.67,210.94h6.05c1.3,1.86,2.6,3.7,3.88,5.47,1.33,1.84,2.71,3.69,4.09,5.48l.11.14h8.84l-.42-.58c-2.75-3.79-5.58-7.61-8.4-11.34,2.05-.9,3.73-2.3,5-4.19,1.35-2.02,2.04-4.41,2.04-7.11,0-1.78-.31-3.45-.91-4.97-.6-1.51-1.46-2.84-2.54-3.93-1.08-1.09-2.4-1.95-3.91-2.56-1.52-.6-3.21-.91-5.02-.91h-16.2v35.58h7.39v-11.09Z"/>
    <path class="st1" d="M31.62,191.44c-1.13-1.14-2.39-2.14-3.76-2.96-1.37-.82-2.87-1.47-4.47-1.92-1.6-.45-3.27-.68-4.98-.68-2.51,0-4.92.49-7.14,1.46-2.22.97-4.19,2.3-5.85,3.96-1.66,1.66-2.99,3.63-3.96,5.85-.97,2.22-1.46,4.63-1.46,7.14s.49,4.92,1.46,7.14c.97,2.22,2.3,4.19,3.96,5.85,1.66,1.66,3.63,2.99,5.85,3.96,2.23.97,4.63,1.46,7.14,1.46,1.71,0,3.38-.23,4.98-.68,1.59-.45,3.1-1.1,4.47-1.92,1.37-.82,2.64-1.82,3.76-2.96,1.13-1.14,2.09-2.45,2.87-3.87l.19-.36-6.89-2.79-.16.25c-.49.74-1.08,1.45-1.74,2.11-.66.66-1.4,1.24-2.2,1.73-.8.49-1.65.88-2.54,1.15-.88.27-1.81.41-2.75.41-1.53,0-2.97-.32-4.3-.94-1.33-.63-2.51-1.48-3.49-2.52-.98-1.04-1.78-2.27-2.36-3.65-.58-1.37-.88-2.85-.88-4.38s.3-2.97.88-4.36c.58-1.4,1.37-2.63,2.36-3.68.98-1.04,2.15-1.89,3.49-2.52,1.33-.62,2.77-.94,4.3-.94.94,0,1.87.14,2.75.41.88.27,1.74.66,2.54,1.15.8.49,1.54,1.07,2.2,1.71.66.65,1.25,1.35,1.74,2.09l.16.25,6.89-2.79-.2-.36c-.77-1.39-1.74-2.67-2.87-3.82"/>
    <path class="st1" d="M66.17,204.25c0,1.53-.29,3.01-.87,4.38-.58,1.38-1.38,2.62-2.38,3.68-.99,1.06-2.17,1.91-3.5,2.54-1.32.62-2.77.94-4.29.94s-2.97-.32-4.29-.94c-1.33-.63-2.51-1.48-3.5-2.54-.99-1.06-1.79-2.3-2.38-3.68-.58-1.38-.87-2.85-.87-4.38s.29-2.97.87-4.36c.58-1.4,1.38-2.63,2.37-3.67.99-1.04,2.17-1.89,3.5-2.52,1.32-.62,2.77-.94,4.29-.94s2.96.32,4.29.94c1.33.63,2.51,1.48,3.5,2.52.99,1.04,1.79,2.28,2.37,3.67.58,1.39.88,2.86.88,4.36M68.14,191.2c-1.66-1.66-3.63-2.99-5.85-3.96-2.23-.97-4.64-1.46-7.19-1.46s-4.92.49-7.14,1.46c-2.22.97-4.19,2.3-5.85,3.96-1.66,1.66-2.99,3.64-3.96,5.87-.97,2.24-1.46,4.65-1.46,7.17s.49,4.97,1.46,7.19c.97,2.22,2.3,4.19,3.96,5.85,1.66,1.66,3.63,2.99,5.85,3.96,2.23.97,4.63,1.46,7.14,1.46s4.96-.49,7.19-1.46c2.22-.97,4.19-2.3,5.85-3.96,1.66-1.66,2.99-3.63,3.96-5.85.97-2.22,1.46-4.64,1.46-7.19s-.49-4.93-1.46-7.17c-.96-2.24-2.3-4.21-3.96-5.87"/>
    <path class="st1" d="M132.42,204.29c0,2.35-.33,4.27-.97,5.71-.64,1.43-1.46,2.57-2.45,3.37-.98.8-2.09,1.35-3.3,1.62-1.24.28-2.48.42-3.68.42h-6.73v-22.23h6.73c1.17,0,2.4.14,3.63.42,1.21.27,2.33.81,3.33,1.6,1,.79,1.82,1.92,2.46,3.36.64,1.45.97,3.38.97,5.73M134.51,190.93c-3.26-2.97-7.47-4.48-12.51-4.48h-14.1v35.58h14.1c2.5,0,4.84-.38,6.94-1.12,2.11-.74,3.99-1.86,5.57-3.31,1.74-1.58,3.08-3.53,3.97-5.78.88-2.24,1.33-4.79,1.33-7.58s-.45-5.3-1.33-7.54c-.89-2.25-2.22-4.19-3.97-5.78"/>
  </g>
  <g>
    <rect class="st1" x="168.4" width="164.83" height="164.83"/>
    <path class="st0" d="M177.2,156.03h147.22V8.8h-147.22v147.22ZM326.11,157.71h-150.59V7.12h150.59v150.59Z"/>
  </g>
  <g>
    <polygon class="st0" points="271.02 56.08 282.58 48.36 294.14 56.08 290.38 42.7 301.29 34.09 287.4 33.53 282.58 20.49 277.76 33.53 263.88 34.09 274.79 42.7 271.02 56.08"/>
    <path class="st0" d="M291.6,105.54c-1.93-2.62-4.37-4.67-7.3-6.11,2.14-1.51,3.89-3.42,5.24-5.71,1.97-3.34,2.96-7.03,2.96-10.96,0-2.45-.43-4.91-1.28-7.31-.86-2.41-2.08-4.59-3.64-6.49-1.58-1.92-3.52-3.5-5.77-4.7-2.3-1.23-4.9-1.85-7.71-1.85h-38.04v34.39c-3.77.2-7.31-.51-10.45-2.11-1.62-.83-3.1-1.88-4.49-3.04-1.06-.89-2.08-1.84-3-2.92-2.12-2.5-3.8-5.43-4.99-8.68-1.19-3.25-1.8-6.74-1.8-10.35,0-3.24.51-6.51,1.52-9.71.99-3.18,2.5-6.07,4.49-8.6,1.97-2.51,4.43-4.57,7.32-6.13,4.17-2.24,9.51-2.95,15.22-1.73,1.75.37,3.49,1.01,5.15,1.89,1.66.88,3.21,2.05,4.61,3.48,1.4,1.43,2.62,3.25,3.63,5.39l.85,1.8,10.25-6.64-.66-1.38c-2.39-5.01-6.1-9.12-11.02-12.24-4.93-3.11-10.88-4.69-17.69-4.69-5.72,0-10.93,1.13-15.47,3.37-4.51,2.22-8.38,5.18-11.5,8.81-3.11,3.61-5.5,7.75-7.11,12.28-1.6,4.52-2.41,9.13-2.41,13.69,0,4.84.88,9.67,2.63,14.34,1.74,4.66,4.24,8.89,7.41,12.56,3.18,3.68,7,6.7,11.35,8.99.4.21.82.36,1.22.55.26.12.51.24.77.35.78.34,1.57.65,2.37.92.54.18,1.08.35,1.62.51.82.23,1.65.43,2.5.59.56.11,1.13.2,1.71.28,1.43.2,2.9.3,4.4.3.51,0,1.05,0,1.57-.03,2.45-.12,4.96-.5,7.5-1.15,3.07-.78,6.02-1.95,8.78-3.45,1.04-.57,2.04-1.18,3.01-1.85.64-.45,1.27-.91,1.88-1.4.91-.73,1.78-1.51,2.61-2.34.56-.56,1.09-1.14,1.59-1.75.5-.61.97-1.24,1.41-1.89.88-1.31,1.63-2.7,2.26-4.17l.45-1.16-1.09-.98h.02s-7.87-7.24-7.87-7.24c0,0-.81,1.85-1.25,2.7-.44.85-1.37,2.34-2.01,3.18-.93,1.23-1.71,2.16-2.73,3.19-.58.57-1.19,1.08-1.8,1.58v-18.01h22.12c1.27,0,2.43.25,3.54.77,1.1.5,2.04,1.22,2.79,2.11.79.94,1.43,2.08,1.9,3.38.48,1.31.72,2.74.72,4.24,0,1.42-.25,2.78-.75,4.04-.51,1.28-1.19,2.39-2.04,3.33-.85.94-1.83,1.66-3.01,2.22-1.12.53-2.39.81-3.77.81h-3.34c-.38.67-.78,1.33-1.2,1.97-1,1.49-2.15,2.88-3.42,4.16-1.67,1.67-3.52,3.18-5.49,4.5-.32.22-.18.35-.02.35h16.35c1.36,0,2.62.28,3.75.85,1.16.58,2.17,1.37,3,2.35.86,1.01,1.55,2.2,2.06,3.55.5,1.34.76,2.75.76,4.17s-.27,2.78-.8,4.08c-.52,1.29-1.27,2.43-2.21,3.41-.95.98-2.07,1.78-3.31,2.37-1.19.57-2.53.86-3.98.86h-23.66v-17.88c-1.43.54-2.88,1-4.36,1.38-2.59.66-5.27,1.05-8.2,1.19-.05,0-.11,0-.17.01v26.8h36.39c3.13,0,6.11-.48,8.85-1.43,2.76-.96,5.23-2.34,7.34-4.12,2.13-1.79,3.83-3.99,5.07-6.53,1.24-2.55,1.87-5.41,1.87-8.47,0-4.88-1.34-9.19-3.98-12.8"/>
  </g>
  <path class="st0" d="M294.49,139c-1.48,0-2.53-1.11-2.53-2.57,0-1.54,1.17-2.57,2.53-2.57s2.51,1.02,2.51,2.57-1.17,2.57-2.51,2.57ZM294.49,134.31c-1.11,0-1.98.87-1.98,2.12,0,1.17.75,2.12,1.98,2.12,1.1,0,1.96-.87,1.96-2.12s-.86-2.12-1.96-2.12ZM293.98,137.9h-.47v-2.84h1.08c.69,0,1.04.24,1.04.82,0,.51-.32.73-.74.78l.8,1.25h-.53l-.73-1.22h-.44v1.22ZM294.5,136.29c.35,0,.66-.03.66-.45,0-.34-.34-.38-.62-.38h-.56v.83h.52Z"/>
</svg>