<?xml version="1.0" standalone="no"?>
<!DOCTYPE svg PUBLIC "-//W3C//DTD SVG 1.1//EN" "http://www.w3.org/Graphics/SVG/1.1/DTD/svg11.dtd">
<svg xmlns="http://www.w3.org/2000/svg" id="Original" version="1.1" viewBox="0 0 632.18 136.4" width="632.1799926757812" height="136.39999389648438">
  <!-- Generator: Adobe Illustrator 29.6.1, SVG Export Plug-In . SVG Version: 2.1.1 Build 9)  -->
  <defs>
    <style>
      .st0 {
        fill: #fff;
      }

      .st1 {
        fill: #012169;
      }
    </style>
  </defs>
  <g>
    <path class="st1" d="M218.6,9.5c-1.9-1.92-4.02-3.6-6.32-4.98-2.3-1.38-4.83-2.46-7.51-3.22-2.68-.76-5.5-1.14-8.36-1.14-4.22,0-8.26.82-12,2.45-3.73,1.62-7.04,3.86-9.83,6.65-2.79,2.79-5.03,6.1-6.65,9.83-1.63,3.74-2.45,7.78-2.45,12s.82,8.27,2.45,12c1.62,3.73,3.86,7.04,6.65,9.83,2.79,2.79,6.09,5.02,9.83,6.65,3.74,1.63,7.78,2.45,12,2.45,2.87,0,5.68-.38,8.36-1.14,2.68-.76,5.2-1.84,7.51-3.22,2.3-1.38,4.43-3.05,6.32-4.98,1.9-1.92,3.52-4.11,4.82-6.5l.33-.6-11.57-4.68-.28.41c-.83,1.24-1.81,2.44-2.92,3.55-1.11,1.11-2.35,2.09-3.69,2.91-1.34.82-2.77,1.48-4.26,1.94-1.48.46-3.03.69-4.62.69-2.56,0-4.99-.53-7.22-1.58-2.24-1.06-4.21-2.48-5.86-4.23-1.65-1.75-2.98-3.82-3.96-6.14-.98-2.31-1.47-4.79-1.47-7.36s.5-4.99,1.47-7.33c.98-2.34,2.31-4.42,3.96-6.18,1.64-1.75,3.62-3.17,5.86-4.23,2.23-1.05,4.66-1.58,7.22-1.58,1.58,0,3.14.23,4.62.69,1.48.46,2.92,1.11,4.26,1.94,1.34.83,2.58,1.79,3.69,2.88,1.11,1.09,2.09,2.26,2.92,3.5l.27.41,11.58-4.69-.34-.6c-1.3-2.33-2.92-4.49-4.82-6.41Z"/>
    <path class="st1" d="M279.97,9.1c-2.79-2.79-6.1-5.03-9.83-6.65-3.74-1.63-7.8-2.45-12.08-2.45s-8.26.82-12,2.45c-3.73,1.62-7.04,3.86-9.83,6.65-2.79,2.79-5.03,6.11-6.65,9.87-1.63,3.76-2.45,7.82-2.45,12.04s.82,8.35,2.45,12.08c1.62,3.73,3.86,7.04,6.65,9.83,2.79,2.79,6.09,5.02,9.83,6.65,3.74,1.63,7.78,2.45,12,2.45s8.34-.82,12.08-2.45c3.73-1.62,7.04-3.86,9.83-6.65,2.79-2.79,5.03-6.1,6.65-9.83,1.63-3.74,2.45-7.8,2.45-12.08s-.82-8.28-2.45-12.04c-1.62-3.76-3.86-7.08-6.65-9.87ZM276.65,31.01c0,2.57-.49,5.05-1.47,7.36-.98,2.32-2.32,4.4-3.99,6.18-1.67,1.78-3.65,3.21-5.88,4.27-2.22,1.05-4.65,1.58-7.2,1.58s-4.98-.53-7.21-1.58c-2.23-1.05-4.21-2.49-5.88-4.27-1.67-1.78-3.01-3.86-3.99-6.18-.98-2.31-1.47-4.79-1.47-7.36s.49-4.98,1.47-7.33c.98-2.35,2.32-4.42,3.99-6.17,1.67-1.75,3.65-3.17,5.89-4.23,2.22-1.05,4.65-1.58,7.21-1.58s4.98.53,7.2,1.58c2.24,1.06,4.22,2.48,5.89,4.23,1.67,1.75,3.01,3.83,3.99,6.17.98,2.34,1.47,4.81,1.47,7.33Z"/>
    <polygon class="st1" points="310.17 1.12 297.76 1.12 297.76 60.9 341.13 60.9 341.13 49.76 310.17 49.76 310.17 1.12"/>
    <path class="st1" d="M391.48,8.64c-5.47-4.99-12.54-7.52-21.02-7.52h-23.69v59.78h23.69c4.21,0,8.13-.63,11.66-1.87,3.55-1.25,6.7-3.12,9.35-5.56,2.93-2.66,5.17-5.93,6.67-9.71,1.49-3.76,2.24-8.05,2.24-12.74s-.75-8.9-2.24-12.66c-1.49-3.78-3.74-7.04-6.66-9.71ZM387.96,31.09c0,3.95-.55,7.18-1.63,9.59-1.08,2.41-2.46,4.31-4.11,5.66-1.65,1.35-3.52,2.26-5.55,2.72-2.08.47-4.16.71-6.19.71h-11.31V12.42h11.31c1.97,0,4.03.24,6.11.71,2.03.46,3.91,1.36,5.6,2.68,1.67,1.32,3.07,3.22,4.14,5.65,1.08,2.44,1.63,5.68,1.63,9.63Z"/>
    <polygon class="st1" points="455.45 32.37 441.02 1.2 439.53 1.2 425.11 32.28 414.02 1.2 400.8 1.2 422.7 60.58 422.85 60.98 424.7 60.98 440.31 27.65 455.76 60.9 457.7 60.9 479.99 1.2 466.77 1.2 455.45 32.37"/>
    <polygon class="st1" points="485.42 60.9 529.76 60.9 529.76 49.6 497.84 49.6 497.84 37.06 526.16 37.06 526.16 25.68 497.84 25.68 497.84 12.26 529.76 12.26 529.76 1.12 485.42 1.12 485.42 60.9"/>
    <polygon class="st1" points="552.21 1.12 539.8 1.12 539.8 60.9 583.17 60.9 583.17 49.76 552.21 49.76 552.21 1.12"/>
    <polygon class="st1" points="601.22 1.12 588.8 1.12 588.8 60.9 632.18 60.9 632.18 49.76 601.22 49.76 601.22 1.12"/>
  </g>
  <g>
    <path class="st1" d="M211.27,108.81c-1.16-1.27-2.5-2.3-3.97-3.04-.56-.28-1.13-.52-1.7-.72.45-.19.89-.43,1.32-.71,1.23-.81,2.29-1.82,3.15-3,.86-1.16,1.54-2.46,2.04-3.85.5-1.4.76-2.74.76-3.98,0-3.38-.47-6.2-1.41-8.38-.94-2.2-2.25-3.95-3.87-5.22-1.61-1.25-3.52-2.13-5.68-2.6-2.12-.46-4.39-.7-6.77-.7h-26.37v59.78h27.65c2.55,0,4.98-.3,7.24-.9,2.29-.61,4.32-1.63,6.03-3.03,1.72-1.41,3.1-3.29,4.09-5.57.99-2.27,1.49-5.08,1.49-8.34,0-1.89-.38-3.69-1.13-5.36-.74-1.65-1.71-3.12-2.87-4.39ZM202.85,117.95c0,.88-.17,1.76-.52,2.61-.35.87-.83,1.68-1.42,2.4-.59.71-1.28,1.28-2.06,1.69-.76.4-1.58.61-2.43.61h-15.23v-13.66h14.03c2.39,0,4.28.62,5.63,1.84,1.35,1.23,2,2.7,2,4.51ZM200.45,93.75c0,.79-.14,1.6-.41,2.42-.27.81-.67,1.55-1.18,2.18-.5.63-1.14,1.14-1.89,1.53-.73.38-1.62.57-2.64.57h-13.15v-12.7h13.95c.69,0,1.37.17,2,.49.65.34,1.23.78,1.71,1.32.48.54.88,1.18,1.17,1.91.29.73.44,1.49.44,2.27Z"/>
    <path class="st1" d="M247.01,76.71l-30.54,59.7h13.54l4.48-9.2h26.84l4.56,9.2h13.53l-30.54-59.7h-1.86ZM255.3,116.22h-14.8l7.43-15.65,7.36,15.65Z"/>
    <polygon class="st1" points="324.23 111.29 286.77 76.87 286.59 76.71 284.55 76.71 284.55 136.4 296.96 136.4 296.96 102.37 334.6 136.4 336.64 136.4 336.64 76.71 324.23 76.71 324.23 111.29"/>
    <polygon class="st1" points="398.62 76.71 383.3 76.71 360.93 105.23 360.93 76.63 348.51 76.63 348.51 136.4 360.93 136.4 360.93 110.71 384.61 136.4 401.08 136.4 374.08 107.52 398.62 76.71"/>
    <polygon class="st1" points="406.42 136.4 450.76 136.4 450.76 125.1 418.84 125.1 418.84 112.56 447.16 112.56 447.16 101.18 418.84 101.18 418.84 87.76 450.76 87.76 450.76 76.63 406.42 76.63 406.42 136.4"/>
    <path class="st1" d="M473.21,117.76h10.16c2.18,3.12,4.37,6.21,6.52,9.19,2.24,3.1,4.55,6.2,6.87,9.22l.18.24h14.85l-.7-.97c-4.63-6.37-9.37-12.78-14.11-19.06,3.45-1.5,6.27-3.87,8.4-7.04,2.28-3.4,3.43-7.41,3.43-11.94,0-2.99-.51-5.8-1.53-8.34-1.01-2.54-2.45-4.76-4.26-6.6-1.81-1.84-4.03-3.28-6.58-4.3-2.55-1.01-5.39-1.52-8.44-1.52h-27.21v59.78h12.42v-18.64ZM493.63,104.36c-.78.76-1.69,1.34-2.69,1.7-1.02.37-2.01.56-2.94.56h-14.78v-18.86h14.78c1.84,0,3.31.34,4.38,1.02,1.08.69,1.93,1.54,2.52,2.52.6,1,1,2.06,1.2,3.16.21,1.14.31,2.12.31,2.93,0,1.56-.26,2.92-.78,4.07-.52,1.15-1.19,2.12-1.98,2.9Z"/>
  </g>
  <g>
    <rect class="st1" y="1.12" width="134.92" height="134.92"/>
    <path class="st0" d="M7.21,128.83h120.5V8.33H7.21v120.5ZM129.08,130.21H5.83V6.95h123.25v123.25Z"/>
    <polygon class="st0" points="83.99 47.02 93.46 40.7 102.92 47.02 99.84 36.07 108.77 29.02 97.4 28.57 93.46 17.9 89.51 28.57 78.15 29.02 87.08 36.07 83.99 47.02"/>
    <path class="st0" d="M100.84,87.5c-1.58-2.15-3.58-3.82-5.98-5,1.75-1.23,3.18-2.8,4.29-4.68,1.61-2.74,2.42-5.75,2.42-8.97,0-2-.35-4.02-1.05-5.99-.7-1.97-1.7-3.76-2.98-5.31-1.29-1.57-2.88-2.86-4.72-3.84-1.89-1-4.01-1.51-6.31-1.51h-31.14v28.15c-3.08.16-5.98-.41-8.55-1.73-1.33-.68-2.54-1.54-3.67-2.49-.87-.73-1.71-1.5-2.45-2.39-1.74-2.05-3.11-4.44-4.09-7.1-.98-2.66-1.47-5.51-1.47-8.47,0-2.65.42-5.33,1.24-7.95.81-2.6,2.05-4.97,3.67-7.04,1.61-2.05,3.63-3.74,6-5.01,3.41-1.83,7.78-2.42,12.46-1.42,1.43.31,2.86.83,4.22,1.55,1.36.72,2.63,1.68,3.77,2.85,1.14,1.17,2.15,2.66,2.97,4.41l.69,1.47,8.39-5.43-.54-1.13c-1.96-4.1-5-7.47-9.02-10.02-4.03-2.55-8.9-3.84-14.48-3.84-4.68,0-8.95.93-12.66,2.76-3.69,1.82-6.86,4.24-9.42,7.21-2.55,2.96-4.5,6.34-5.82,10.05-1.31,3.7-1.98,7.47-1.98,11.21,0,3.96.72,7.91,2.15,11.73,1.43,3.82,3.47,7.28,6.07,10.28,2.6,3.01,5.73,5.48,9.29,7.35.33.17.67.29,1,.45.21.1.42.19.63.29.64.28,1.28.53,1.94.75.44.15.88.29,1.33.41.67.19,1.35.35,2.04.48.46.09.93.17,1.4.23,1.17.16,2.37.24,3.6.24.42,0,.86,0,1.28-.03,2-.1,4.06-.41,6.14-.94,2.51-.64,4.93-1.59,7.19-2.82.85-.46,1.67-.97,2.46-1.52.53-.36,1.04-.75,1.54-1.15.75-.6,1.46-1.24,2.14-1.91.46-.46.89-.94,1.3-1.43.41-.5.79-1.01,1.15-1.54.72-1.07,1.34-2.21,1.85-3.41l.37-.95-.9-.8h.01s-6.44-5.92-6.44-5.92c0,0-.66,1.52-1.02,2.21-.36.69-1.12,1.91-1.65,2.61-.76,1-1.4,1.77-2.24,2.61-.47.47-.97.89-1.47,1.3v-14.74h18.11c1.04,0,1.99.2,2.9.63.9.41,1.67,1,2.29,1.73.64.77,1.17,1.7,1.56,2.77.39,1.07.59,2.24.59,3.47,0,1.16-.21,2.27-.62,3.31-.41,1.04-.97,1.96-1.67,2.72-.7.77-1.5,1.36-2.47,1.82-.92.44-1.96.66-3.09.66h-2.73c-.31.55-.63,1.09-.99,1.62-.82,1.22-1.76,2.36-2.8,3.4-1.37,1.37-2.88,2.6-4.49,3.68-.26.18-.15.28-.01.28h13.38c1.11,0,2.15.23,3.07.69.95.47,1.77,1.12,2.46,1.92.7.82,1.27,1.8,1.69,2.9.41,1.1.62,2.25.62,3.41s-.22,2.28-.65,3.34c-.43,1.05-1.04,1.99-1.81,2.79-.78.8-1.69,1.45-2.71,1.94-.98.47-2.07.7-3.26.7h-19.37v-14.64c-1.17.44-2.36.82-3.57,1.13-2.12.54-4.31.86-6.71.97-.04,0-.09,0-.14,0v21.94h29.79c2.56,0,5-.39,7.24-1.17,2.26-.78,4.28-1.92,6.01-3.37,1.74-1.47,3.14-3.27,4.15-5.35,1.02-2.09,1.53-4.42,1.53-6.94,0-3.99-1.1-7.52-3.26-10.48"/>
  </g>
  <path class="st0" d="M103.2,114.89c-1.21,0-2.07-.9-2.07-2.1,0-1.26.95-2.1,2.07-2.1s2.06.84,2.06,2.1-.95,2.1-2.06,2.1ZM103.2,111.06c-.91,0-1.62.71-1.62,1.74,0,.95.62,1.74,1.62,1.74.9,0,1.61-.71,1.61-1.74s-.71-1.74-1.61-1.74ZM102.79,113.99h-.38v-2.33h.88c.56,0,.85.2.85.67,0,.42-.26.6-.61.63l.65,1.02h-.43l-.6-.99h-.36v.99ZM103.21,112.67c.29,0,.54-.03.54-.37,0-.28-.28-.31-.51-.31h-.46v.68h.43Z"/>
</svg>