<?xml version="1.0" standalone="no"?>
<!DOCTYPE svg PUBLIC "-//W3C//DTD SVG 1.1//EN" "http://www.w3.org/Graphics/SVG/1.1/DTD/svg11.dtd">
<svg xmlns="http://www.w3.org/2000/svg" id="Original" version="1.1" viewBox="0 0 626.3 148.95" width="626.2999877929688" height="148.9499969482422">
  <!-- Generator: Adobe Illustrator 29.6.1, SVG Export Plug-In . SVG Version: 2.1.1 Build 9)  -->
  <defs>
    <style>
      .st0 {
        fill: #fff;
      }
    </style>
  </defs>
  <g>
    <path class="st0" d="M212.73,21.97c-1.9-1.92-4.02-3.6-6.32-4.98-2.3-1.38-4.83-2.46-7.51-3.22-2.68-.76-5.5-1.14-8.36-1.14-4.22,0-8.26.82-12,2.45-3.73,1.62-7.04,3.86-9.83,6.65-2.79,2.79-5.03,6.1-6.65,9.83-1.63,3.74-2.45,7.78-2.45,12s.82,8.27,2.45,12c1.62,3.73,3.86,7.04,6.65,9.83,2.79,2.79,6.09,5.02,9.83,6.65,3.74,1.63,7.78,2.45,12,2.45,2.87,0,5.68-.38,8.36-1.14,2.68-.76,5.2-1.84,7.51-3.22,2.3-1.38,4.43-3.05,6.32-4.98,1.9-1.92,3.52-4.11,4.82-6.5l.33-.6-11.57-4.68-.28.41c-.83,1.24-1.81,2.44-2.92,3.55-1.11,1.11-2.35,2.09-3.69,2.91-1.34.82-2.77,1.48-4.26,1.94-1.48.46-3.03.69-4.62.69-2.56,0-4.99-.53-7.22-1.58-2.24-1.06-4.21-2.48-5.86-4.23-1.65-1.75-2.98-3.82-3.96-6.14-.98-2.31-1.47-4.79-1.47-7.36s.5-4.99,1.47-7.33c.98-2.34,2.31-4.42,3.96-6.18,1.64-1.75,3.62-3.17,5.86-4.23,2.23-1.05,4.66-1.58,7.22-1.58,1.58,0,3.14.23,4.62.69,1.48.46,2.92,1.11,4.26,1.94,1.34.83,2.58,1.79,3.69,2.88,1.11,1.09,2.09,2.26,2.92,3.5l.27.41,11.58-4.69-.34-.6c-1.3-2.33-2.92-4.49-4.82-6.41Z"/>
    <path class="st0" d="M274.1,21.57c-2.79-2.79-6.1-5.03-9.83-6.65-3.74-1.63-7.8-2.45-12.08-2.45s-8.26.82-12,2.45c-3.73,1.62-7.04,3.86-9.83,6.65-2.79,2.79-5.03,6.11-6.65,9.87-1.63,3.76-2.45,7.82-2.45,12.04s.82,8.35,2.45,12.08c1.62,3.73,3.86,7.04,6.65,9.83,2.79,2.79,6.09,5.02,9.83,6.65,3.74,1.63,7.78,2.45,12,2.45s8.34-.82,12.08-2.45c3.73-1.62,7.04-3.86,9.83-6.65,2.79-2.79,5.03-6.1,6.65-9.83,1.63-3.74,2.45-7.8,2.45-12.08s-.82-8.28-2.45-12.04c-1.62-3.76-3.86-7.08-6.65-9.87ZM270.78,43.48c0,2.57-.49,5.05-1.47,7.36-.98,2.32-2.32,4.4-3.99,6.18-1.67,1.78-3.65,3.21-5.88,4.27-2.22,1.05-4.65,1.58-7.2,1.58s-4.98-.53-7.21-1.58c-2.23-1.05-4.21-2.49-5.88-4.27-1.67-1.78-3.01-3.86-3.99-6.18-.98-2.31-1.47-4.79-1.47-7.36s.49-4.98,1.47-7.33c.98-2.35,2.32-4.42,3.99-6.17,1.67-1.75,3.65-3.17,5.89-4.23,2.22-1.05,4.65-1.58,7.21-1.58s4.98.53,7.2,1.58c2.24,1.06,4.22,2.48,5.89,4.23,1.67,1.75,3.01,3.83,3.99,6.17.98,2.34,1.47,4.81,1.47,7.33Z"/>
    <polygon class="st0" points="304.3 13.59 291.88 13.59 291.88 73.36 335.26 73.36 335.26 62.23 304.3 62.23 304.3 13.59"/>
    <path class="st0" d="M385.6,21.11c-5.47-4.99-12.54-7.52-21.02-7.52h-23.69v59.78h23.69c4.21,0,8.13-.63,11.66-1.87,3.55-1.25,6.7-3.12,9.35-5.56,2.93-2.66,5.17-5.93,6.67-9.71,1.49-3.76,2.24-8.05,2.24-12.74s-.75-8.9-2.24-12.66c-1.49-3.78-3.74-7.04-6.66-9.71ZM382.09,43.56c0,3.95-.55,7.18-1.63,9.59-1.08,2.41-2.46,4.31-4.11,5.66-1.65,1.35-3.52,2.26-5.55,2.72-2.08.47-4.16.71-6.19.71h-11.31V24.88h11.31c1.97,0,4.03.24,6.11.71,2.03.46,3.91,1.36,5.6,2.68,1.67,1.32,3.07,3.22,4.14,5.65,1.08,2.44,1.63,5.68,1.63,9.63Z"/>
    <polygon class="st0" points="449.57 44.84 435.15 13.67 433.65 13.67 419.23 44.75 408.15 13.67 394.92 13.67 416.83 73.05 416.97 73.44 418.82 73.44 434.43 40.12 449.89 73.36 451.82 73.36 474.11 13.67 460.89 13.67 449.57 44.84"/>
    <polygon class="st0" points="479.55 73.36 523.88 73.36 523.88 62.07 491.96 62.07 491.96 49.53 520.28 49.53 520.28 38.15 491.96 38.15 491.96 24.73 523.88 24.73 523.88 13.59 479.55 13.59 479.55 73.36"/>
    <polygon class="st0" points="546.34 13.59 533.92 13.59 533.92 73.36 577.3 73.36 577.3 62.23 546.34 62.23 546.34 13.59"/>
    <polygon class="st0" points="595.34 13.59 582.93 13.59 582.93 73.36 626.3 73.36 626.3 62.23 595.34 62.23 595.34 13.59"/>
  </g>
  <g>
    <path class="st0" d="M205.39,121.28c-1.16-1.27-2.5-2.3-3.97-3.04-.56-.28-1.13-.52-1.7-.72.45-.19.89-.43,1.32-.71,1.23-.81,2.29-1.82,3.15-3,.86-1.16,1.54-2.46,2.04-3.85.5-1.4.76-2.74.76-3.98,0-3.38-.47-6.2-1.41-8.38-.94-2.2-2.25-3.95-3.87-5.22-1.61-1.25-3.52-2.13-5.68-2.6-2.12-.46-4.39-.7-6.77-.7h-26.37v59.78h27.65c2.55,0,4.98-.3,7.24-.9,2.29-.61,4.32-1.63,6.03-3.03,1.72-1.41,3.1-3.29,4.09-5.57.99-2.27,1.49-5.08,1.49-8.34,0-1.89-.38-3.69-1.13-5.36-.74-1.65-1.71-3.12-2.87-4.39ZM196.97,130.42c0,.88-.17,1.76-.52,2.61-.35.87-.83,1.68-1.42,2.4-.59.71-1.28,1.28-2.06,1.69-.76.4-1.58.61-2.43.61h-15.23v-13.66h14.03c2.39,0,4.28.62,5.63,1.84,1.35,1.23,2,2.7,2,4.51ZM194.57,106.22c0,.79-.14,1.6-.41,2.42-.27.81-.67,1.55-1.18,2.18-.5.63-1.14,1.14-1.89,1.53-.73.38-1.62.57-2.64.57h-13.15v-12.7h13.95c.69,0,1.37.17,2,.49.65.34,1.23.78,1.71,1.32.48.54.88,1.18,1.17,1.91.29.73.44,1.49.44,2.27Z"/>
    <path class="st0" d="M241.13,89.17l-30.54,59.7h13.54l4.48-9.2h26.84l4.56,9.2h13.53l-30.54-59.7h-1.86ZM249.43,128.69h-14.8l7.43-15.65,7.36,15.65Z"/>
    <polygon class="st0" points="318.35 123.76 280.89 89.33 280.72 89.17 278.67 89.17 278.67 148.87 291.09 148.87 291.09 114.83 328.72 148.87 330.77 148.87 330.77 89.17 318.35 89.17 318.35 123.76"/>
    <polygon class="st0" points="392.75 89.17 377.43 89.17 355.05 117.7 355.05 89.09 342.64 89.09 342.64 148.87 355.05 148.87 355.05 123.18 378.74 148.87 395.21 148.87 368.21 119.99 392.75 89.17"/>
    <polygon class="st0" points="400.55 148.87 444.88 148.87 444.88 137.57 412.96 137.57 412.96 125.03 441.28 125.03 441.28 113.65 412.96 113.65 412.96 100.23 444.88 100.23 444.88 89.09 400.55 89.09 400.55 148.87"/>
    <path class="st0" d="M467.34,130.23h10.16c2.18,3.12,4.37,6.21,6.52,9.19,2.24,3.1,4.55,6.2,6.87,9.22l.18.24h14.85l-.7-.97c-4.63-6.37-9.37-12.78-14.11-19.06,3.45-1.5,6.27-3.87,8.4-7.04,2.28-3.4,3.43-7.41,3.43-11.94,0-2.99-.51-5.8-1.53-8.34-1.01-2.54-2.45-4.76-4.26-6.6-1.81-1.84-4.03-3.28-6.58-4.3-2.55-1.01-5.39-1.52-8.44-1.52h-27.21v59.78h12.42v-18.64ZM487.75,116.83c-.78.76-1.69,1.34-2.69,1.7-1.02.37-2.01.56-2.94.56h-14.78v-18.86h14.78c1.84,0,3.31.34,4.38,1.02,1.08.69,1.93,1.54,2.52,2.52.6,1,1,2.06,1.2,3.16.21,1.14.31,2.12.31,2.93,0,1.56-.26,2.92-.78,4.07-.52,1.15-1.19,2.12-1.98,2.9Z"/>
  </g>
  <g>
    <polygon class="st0" points="91.14 44.72 105.67 35.02 120.2 44.72 115.47 27.91 129.18 17.08 111.73 16.39 105.67 0 99.62 16.39 82.16 17.08 95.88 27.91 91.14 44.72"/>
    <path class="st0" d="M117.01,106.9c-2.42-3.3-5.49-5.87-9.18-7.68,2.69-1.9,4.89-4.3,6.59-7.18,2.47-4.2,3.72-8.84,3.72-13.77,0-3.08-.54-6.17-1.61-9.19-1.08-3.03-2.62-5.77-4.58-8.16-1.98-2.41-4.42-4.4-7.25-5.9-2.9-1.54-6.16-2.32-9.69-2.32h-47.81v43.22c-4.73.25-9.19-.64-13.13-2.65-2.04-1.04-3.9-2.36-5.64-3.82-1.33-1.12-2.62-2.31-3.77-3.66-2.67-3.15-4.78-6.82-6.28-10.91-1.5-4.09-2.26-8.47-2.26-13.01,0-4.08.64-8.18,1.9-12.21,1.24-3.99,3.15-7.63,5.64-10.81,2.47-3.15,5.57-5.74,9.21-7.7,5.24-2.81,11.95-3.71,19.13-2.18,2.2.47,4.39,1.27,6.48,2.38,2.09,1.11,4.04,2.58,5.8,4.38,1.76,1.8,3.3,4.08,4.57,6.77l1.07,2.26,12.88-8.35-.83-1.73c-3.01-6.29-7.67-11.47-13.86-15.38-6.19-3.91-13.67-5.9-22.24-5.9-7.19,0-13.74,1.42-19.45,4.23-5.66,2.79-10.53,6.51-14.46,11.07-3.91,4.54-6.92,9.74-8.93,15.43-2.01,5.69-3.03,11.47-3.03,17.21,0,6.09,1.11,12.15,3.3,18.02,2.19,5.86,5.32,11.18,9.31,15.79,3.99,4.62,8.8,8.42,14.27,11.29.5.26,1.03.45,1.54.69.32.15.65.3.97.44.98.43,1.97.81,2.98,1.16.67.23,1.35.44,2.04.63,1.03.29,2.08.54,3.14.74.71.14,1.42.25,2.14.35,1.8.25,3.65.37,5.53.37.65,0,1.32-.01,1.97-.04,3.08-.15,6.23-.63,9.43-1.45,3.86-.98,7.57-2.45,11.04-4.33,1.31-.71,2.57-1.49,3.78-2.33.81-.56,1.6-1.15,2.36-1.76,1.15-.92,2.24-1.9,3.28-2.94.7-.7,1.37-1.44,1.99-2.2.63-.76,1.22-1.55,1.77-2.37,1.1-1.64,2.05-3.39,2.84-5.24l.56-1.45-1.38-1.23h.02s-9.89-9.1-9.89-9.1c0,0-1.01,2.33-1.57,3.39-.56,1.06-1.72,2.94-2.53,4-1.17,1.54-2.15,2.72-3.44,4-.73.72-1.49,1.36-2.26,1.99v-22.63h27.81c1.59,0,3.05.31,4.45.96,1.38.63,2.57,1.53,3.51,2.65.99,1.18,1.79,2.61,2.39,4.25.6,1.65.9,3.45.9,5.33,0,1.78-.32,3.49-.95,5.08-.64,1.6-1.5,3.01-2.56,4.18-1.07,1.18-2.3,2.09-3.79,2.79-1.41.67-3,1.01-4.74,1.01h-4.19c-.47.85-.98,1.68-1.51,2.48-1.26,1.87-2.71,3.63-4.31,5.23-2.1,2.1-4.43,4-6.9,5.66-.41.27-.23.44-.02.44h20.55c1.71,0,3.3.36,4.71,1.07,1.45.72,2.72,1.72,3.77,2.95,1.08,1.26,1.95,2.76,2.59,4.46.63,1.69.95,3.45.95,5.24s-.33,3.49-1,5.12c-.66,1.62-1.59,3.06-2.77,4.28-1.2,1.23-2.6,2.23-4.16,2.97-1.5.72-3.18,1.08-5,1.08h-29.75v-22.48c-1.79.67-3.62,1.26-5.48,1.73-3.25.83-6.62,1.32-10.31,1.49-.06,0-.14,0-.21.01v33.69h45.75c3.93,0,7.68-.61,11.12-1.8,3.47-1.2,6.57-2.95,9.23-5.17,2.67-2.25,4.82-5.02,6.37-8.21,1.56-3.21,2.35-6.79,2.35-10.65,0-6.13-1.68-11.55-5.01-16.09"/>
  </g>
  <path class="st0" d="M120.64,148.95c-1.85,0-3.17-1.39-3.17-3.23,0-1.94,1.47-3.23,3.17-3.23s3.16,1.29,3.16,3.23-1.47,3.23-3.16,3.23ZM120.64,143.06c-1.4,0-2.48,1.1-2.48,2.67,0,1.47.95,2.67,2.48,2.67,1.38,0,2.47-1.09,2.47-2.67s-1.09-2.67-2.47-2.67ZM120,147.57h-.59v-3.57h1.35c.86,0,1.3.3,1.3,1.03,0,.65-.4.91-.93.98l1,1.57h-.66l-.92-1.53h-.55v1.53ZM120.65,145.55c.44,0,.83-.04.83-.56,0-.43-.42-.48-.78-.48h-.71v1.04h.66Z"/>
</svg>