<?xml version="1.0" standalone="no"?>
<!DOCTYPE svg PUBLIC "-//W3C//DTD SVG 1.1//EN" "http://www.w3.org/Graphics/SVG/1.1/DTD/svg11.dtd">
<svg xmlns="http://www.w3.org/2000/svg" id="Layer_1" version="1.1" viewBox="0 0 187.33 216" width="187.3300018310547" height="216">
  <!-- Generator: Adobe Illustrator 29.6.1, SVG Export Plug-In . SVG Version: 2.1.1 Build 9)  -->
  <defs>
    <style>
      .st0 {
        fill: #fff;
      }
    </style>
  </defs>
  <polygon class="st0" points="132.16 64.85 153.24 50.79 174.31 64.85 167.44 40.47 187.33 24.77 162.02 23.77 153.24 0 144.46 23.77 119.14 24.77 139.03 40.47 132.16 64.85"/>
  <path class="st0" d="M169.68,155.01c-3.51-4.78-7.97-8.51-13.31-11.13,3.89-2.75,7.09-6.24,9.55-10.41,3.58-6.09,5.4-12.81,5.4-19.97,0-4.46-.79-8.95-2.33-13.33-1.57-4.39-3.8-8.37-6.64-11.83-2.87-3.49-6.42-6.38-10.51-8.56-4.2-2.24-8.93-3.37-14.05-3.37h-69.33v62.68c-6.86.37-13.32-.92-19.04-3.84-2.96-1.51-5.65-3.42-8.18-5.54-1.94-1.63-3.8-3.35-5.46-5.31-3.87-4.57-6.93-9.89-9.1-15.82-2.17-5.93-3.27-12.28-3.27-18.87,0-5.91.93-11.87,2.76-17.71,1.8-5.79,4.56-11.06,8.18-15.68,3.58-4.57,8.08-8.32,13.35-11.16,7.6-4.08,17.33-5.38,27.74-3.16,3.19.68,6.36,1.84,9.39,3.45,3.02,1.6,5.85,3.74,8.4,6.35,2.55,2.61,4.78,5.92,6.62,9.82l1.55,3.28,18.68-12.1-1.2-2.51c-4.36-9.12-11.12-16.63-20.09-22.31-8.98-5.67-19.83-8.55-32.25-8.55-10.43,0-19.92,2.07-28.2,6.14-8.21,4.04-15.27,9.44-20.97,16.05-5.67,6.59-10.03,14.12-12.95,22.38-2.91,8.25-4.4,16.64-4.4,24.95,0,8.83,1.61,17.63,4.79,26.13,3.18,8.5,7.72,16.21,13.51,22.9,5.79,6.7,12.76,12.21,20.7,16.38.72.38,1.49.65,2.23,1,.47.22.94.43,1.41.64,1.42.62,2.86,1.18,4.32,1.68.98.33,1.96.64,2.96.92,1.49.42,3.01.78,4.55,1.08,1.03.2,2.06.37,3.11.51,2.61.36,5.29.54,8.02.54.94,0,1.91-.02,2.86-.06,4.46-.21,9.03-.92,13.67-2.1,5.59-1.43,10.98-3.55,16.01-6.29,1.89-1.03,3.72-2.16,5.48-3.38,1.17-.81,2.31-1.66,3.42-2.55,1.66-1.34,3.25-2.76,4.76-4.26,1.02-1.02,1.98-2.08,2.89-3.19.91-1.1,1.76-2.25,2.56-3.44,1.6-2.38,2.98-4.92,4.12-7.6l.82-2.11-1.99-1.79h.03s-14.34-13.19-14.34-13.19c0,0-1.47,3.38-2.28,4.92-.81,1.54-2.5,4.26-3.67,5.8-1.7,2.24-3.12,3.94-4.98,5.81-1.05,1.04-2.17,1.97-3.28,2.89v-32.82h40.32c2.31,0,4.42.45,6.45,1.4,2,.92,3.72,2.22,5.09,3.84,1.44,1.71,2.6,3.79,3.47,6.17.87,2.39,1.31,5,1.31,7.73,0,2.58-.46,5.06-1.37,7.37-.92,2.32-2.17,4.36-3.71,6.06-1.55,1.71-3.34,3.03-5.49,4.05-2.04.97-4.36,1.47-6.88,1.47h-6.08c-.69,1.23-1.41,2.43-2.2,3.6-1.83,2.71-3.92,5.26-6.24,7.58-3.05,3.05-6.42,5.8-10.01,8.2-.59.39-.33.63-.03.63h29.8c2.48,0,4.78.52,6.84,1.55,2.11,1.05,3.95,2.5,5.47,4.28,1.56,1.83,2.83,4.01,3.76,6.46.92,2.45,1.38,5.01,1.38,7.6s-.49,5.07-1.45,7.43c-.95,2.34-2.31,4.43-4.02,6.21-1.74,1.79-3.77,3.24-6.03,4.31-2.17,1.05-4.61,1.57-7.25,1.57h-43.13v-32.6c-2.6.98-5.25,1.82-7.95,2.51-4.72,1.2-9.61,1.91-14.95,2.16-.09,0-.2.01-.31.02v48.85h66.34c5.7,0,11.13-.88,16.12-2.61,5.03-1.74,9.53-4.27,13.38-7.5,3.88-3.27,6.99-7.28,9.24-11.91,2.26-4.66,3.41-9.85,3.41-15.45,0-8.89-2.44-16.74-7.26-23.34"/>
  <path class="st0" d="M174.87,216c-2.69,0-4.6-2.02-4.6-4.68,0-2.82,2.13-4.68,4.6-4.68s4.58,1.86,4.58,4.68-2.13,4.68-4.58,4.68ZM174.87,207.46c-2.03,0-3.6,1.59-3.6,3.87,0,2.13,1.38,3.87,3.6,3.87,2,0,3.58-1.58,3.58-3.87s-1.58-3.87-3.58-3.87ZM173.95,214h-.85v-5.18h1.96c1.25,0,1.89.44,1.89,1.49,0,.94-.58,1.33-1.35,1.41l1.45,2.28h-.96l-1.34-2.21h-.8v2.21ZM174.9,211.06c.64,0,1.2-.06,1.2-.81,0-.63-.61-.7-1.13-.7h-1.03v1.51h.95Z"/>
</svg>