<?xml version="1.0" standalone="no"?>
<!DOCTYPE svg PUBLIC "-//W3C//DTD SVG 1.1//EN" "http://www.w3.org/Graphics/SVG/1.1/DTD/svg11.dtd">
<svg xmlns="http://www.w3.org/2000/svg" id="Layer_1" version="1.1" viewBox="0 0 501.63 238.92" width="501.6300048828125" height="238.9199981689453">
  <!-- Generator: Adobe Illustrator 29.6.1, SVG Export Plug-In . SVG Version: 2.1.1 Build 9)  -->
  <defs>
    <style>
      .st0 {
        fill: #fff;
      }
    </style>
  </defs>
  <g>
    <polygon class="st0" points="86.12 202.68 78.73 202.68 78.73 238.25 104.55 238.25 104.55 231.63 86.12 231.63 86.12 202.68"/>
    <polygon class="st0" points="172.58 221.28 164 202.72 163.11 202.72 154.53 221.22 147.93 202.72 140.06 202.72 153.09 238.06 153.18 238.3 154.28 238.3 163.57 218.47 172.77 238.25 173.92 238.25 187.19 202.72 179.32 202.72 172.58 221.28"/>
    <polygon class="st0" points="190.43 238.25 216.81 238.25 216.81 231.53 197.82 231.53 197.82 224.07 214.67 224.07 214.67 217.29 197.82 217.29 197.82 209.3 216.81 209.3 216.81 202.68 190.43 202.68 190.43 238.25"/>
    <polygon class="st0" points="230.18 202.68 222.79 202.68 222.79 238.25 248.61 238.25 248.61 231.63 230.18 231.63 230.18 202.68"/>
    <polygon class="st0" points="259.35 202.68 251.96 202.68 251.96 238.25 277.77 238.25 277.77 231.63 259.35 231.63 259.35 202.68"/>
    <path class="st0" d="M316.32,212.87c0,.47-.08.95-.24,1.44-.16.48-.4.92-.7,1.3-.3.37-.68.68-1.12.91-.44.23-.97.34-1.57.34h-7.83v-7.56h8.3c.41,0,.81.1,1.19.29.39.2.73.47,1.02.78.29.32.52.7.69,1.14.17.43.26.89.26,1.35M317.75,227.27c0,.52-.1,1.04-.31,1.56-.21.52-.49,1-.85,1.43-.35.42-.76.76-1.22,1.01-.45.24-.94.36-1.45.36h-9.07v-8.13h8.35c1.42,0,2.55.37,3.35,1.1.8.73,1.19,1.61,1.19,2.68M322.76,221.83c-.69-.76-1.49-1.37-2.36-1.81-.33-.17-.67-.31-1.01-.43.27-.12.53-.26.78-.42.73-.48,1.36-1.08,1.88-1.78.51-.69.92-1.46,1.22-2.29.3-.83.45-1.63.45-2.37,0-2.01-.28-3.69-.84-4.99-.56-1.31-1.34-2.35-2.3-3.1-.96-.75-2.1-1.27-3.38-1.55-1.26-.28-2.62-.41-4.03-.41h-15.69v35.58h16.46c1.52,0,2.96-.18,4.31-.53,1.36-.36,2.57-.97,3.59-1.8,1.02-.84,1.84-1.96,2.44-3.32.59-1.35.89-3.02.89-4.96,0-1.12-.23-2.2-.67-3.19-.44-.98-1.02-1.86-1.71-2.61"/>
    <path class="st0" d="M348.97,226.24h-8.81l4.42-9.31,4.38,9.31ZM344.03,202.72l-18.18,35.53h8.06l2.67-5.48h15.98l2.71,5.48h8.06l-18.18-35.53h-1.11Z"/>
    <polygon class="st0" points="389.99 223.31 367.7 202.82 367.59 202.72 366.37 202.72 366.37 238.25 373.76 238.25 373.76 218 396.17 238.25 397.38 238.25 397.38 202.72 389.99 202.72 389.99 223.31"/>
    <polygon class="st0" points="434.27 202.72 425.15 202.72 411.84 219.7 411.84 202.68 404.45 202.68 404.45 238.25 411.84 238.25 411.84 222.96 425.93 238.25 435.73 238.25 419.66 221.06 434.27 202.72"/>
    <polygon class="st0" points="438.91 238.25 465.3 238.25 465.3 231.53 446.3 231.53 446.3 224.07 463.16 224.07 463.16 217.29 446.3 217.29 446.3 209.3 465.3 209.3 465.3 202.68 438.91 202.68 438.91 238.25"/>
    <path class="st0" d="M490.82,219.18c-.47.45-1.01.8-1.6,1.01-.61.22-1.2.34-1.75.34h-8.8v-11.23h8.8c1.09,0,1.97.21,2.61.61.64.41,1.15.92,1.5,1.5.36.59.6,1.23.71,1.88.12.68.18,1.26.18,1.74,0,.93-.16,1.74-.47,2.42-.31.68-.71,1.26-1.18,1.72M478.67,227.16h6.05c1.3,1.86,2.6,3.7,3.88,5.47,1.33,1.84,2.71,3.69,4.09,5.48l.11.14h8.84l-.42-.58c-2.75-3.79-5.58-7.61-8.4-11.34,2.05-.9,3.73-2.3,5-4.19,1.35-2.02,2.04-4.41,2.04-7.11,0-1.78-.31-3.45-.91-4.97-.6-1.51-1.46-2.84-2.54-3.93-1.08-1.09-2.4-1.95-3.91-2.56-1.52-.6-3.21-.91-5.02-.91h-16.2v35.58h7.39v-11.09Z"/>
    <path class="st0" d="M31.62,207.66c-1.13-1.14-2.39-2.14-3.76-2.96-1.37-.82-2.87-1.47-4.47-1.92-1.6-.45-3.27-.68-4.98-.68-2.51,0-4.92.49-7.14,1.46-2.22.97-4.19,2.3-5.85,3.96-1.66,1.66-2.99,3.63-3.96,5.85-.97,2.22-1.46,4.63-1.46,7.14s.49,4.92,1.46,7.14c.97,2.22,2.3,4.19,3.96,5.85,1.66,1.66,3.63,2.99,5.85,3.96,2.23.97,4.63,1.46,7.14,1.46,1.71,0,3.38-.23,4.98-.68,1.59-.45,3.1-1.1,4.47-1.92,1.37-.82,2.64-1.82,3.76-2.96,1.13-1.14,2.09-2.45,2.87-3.87l.19-.36-6.89-2.79-.16.25c-.49.74-1.08,1.45-1.74,2.11-.66.66-1.4,1.24-2.2,1.73-.8.49-1.65.88-2.54,1.15-.88.27-1.81.41-2.75.41-1.53,0-2.97-.32-4.3-.94-1.33-.63-2.51-1.48-3.49-2.52-.98-1.04-1.78-2.27-2.36-3.65-.58-1.37-.88-2.85-.88-4.38s.3-2.97.88-4.36c.58-1.4,1.37-2.63,2.36-3.68.98-1.04,2.15-1.89,3.49-2.52,1.33-.62,2.77-.94,4.3-.94.94,0,1.87.14,2.75.41.88.27,1.74.66,2.54,1.15.8.49,1.54,1.07,2.2,1.71.66.65,1.25,1.35,1.74,2.09l.16.25,6.89-2.79-.2-.36c-.77-1.39-1.74-2.67-2.87-3.82"/>
    <path class="st0" d="M66.17,220.46c0,1.53-.29,3.01-.87,4.38-.58,1.38-1.38,2.62-2.38,3.68-.99,1.06-2.17,1.91-3.5,2.54-1.32.62-2.77.94-4.29.94s-2.97-.32-4.29-.94c-1.33-.63-2.51-1.48-3.5-2.54-.99-1.06-1.79-2.3-2.38-3.68-.58-1.38-.87-2.85-.87-4.38s.29-2.97.87-4.36c.58-1.4,1.38-2.63,2.37-3.67.99-1.04,2.17-1.89,3.5-2.52,1.32-.62,2.77-.94,4.29-.94s2.96.32,4.29.94c1.33.63,2.51,1.48,3.5,2.52.99,1.04,1.79,2.28,2.37,3.67.58,1.39.88,2.86.88,4.36M68.14,207.42c-1.66-1.66-3.63-2.99-5.85-3.96-2.23-.97-4.64-1.46-7.19-1.46s-4.92.49-7.14,1.46c-2.22.97-4.19,2.3-5.85,3.96-1.66,1.66-2.99,3.64-3.96,5.87-.97,2.24-1.46,4.65-1.46,7.17s.49,4.97,1.46,7.19c.97,2.22,2.3,4.19,3.96,5.85,1.66,1.66,3.63,2.99,5.85,3.96,2.23.97,4.63,1.46,7.14,1.46s4.96-.49,7.19-1.46c2.22-.97,4.19-2.3,5.85-3.96,1.66-1.66,2.99-3.63,3.96-5.85.97-2.22,1.46-4.64,1.46-7.19s-.49-4.93-1.46-7.17c-.96-2.24-2.3-4.21-3.96-5.87"/>
    <path class="st0" d="M132.42,220.51c0,2.35-.33,4.27-.97,5.71-.64,1.43-1.46,2.57-2.45,3.37-.98.8-2.09,1.35-3.3,1.62-1.24.28-2.48.42-3.68.42h-6.73v-22.23h6.73c1.17,0,2.4.14,3.63.42,1.21.27,2.33.81,3.33,1.6,1,.79,1.82,1.92,2.46,3.36.64,1.45.97,3.38.97,5.73M134.51,207.15c-3.26-2.97-7.47-4.48-12.51-4.48h-14.1v35.58h14.1c2.5,0,4.84-.38,6.94-1.12,2.11-.74,3.99-1.86,5.57-3.31,1.74-1.58,3.08-3.53,3.97-5.78.88-2.24,1.33-4.79,1.33-7.58s-.45-5.3-1.33-7.54c-.89-2.25-2.22-4.19-3.97-5.78"/>
  </g>
  <g>
    <polygon class="st0" points="283.08 54.41 300.76 42.61 318.44 54.41 312.68 33.95 329.36 20.78 308.13 19.94 300.76 0 293.4 19.94 272.16 20.78 288.84 33.95 283.08 54.41"/>
    <path class="st0" d="M314.55,130.04c-2.95-4.01-6.68-7.14-11.17-9.34,3.27-2.31,5.95-5.23,8.01-8.74,3.01-5.11,4.53-10.75,4.53-16.76,0-3.74-.66-7.51-1.95-11.18-1.31-3.69-3.18-7.02-5.57-9.92-2.41-2.93-5.38-5.35-8.82-7.18-3.52-1.88-7.49-2.83-11.79-2.83h-58.16v52.58c-5.76.31-11.18-.77-15.98-3.22-2.48-1.27-4.74-2.87-6.87-4.65-1.62-1.37-3.19-2.81-4.58-4.46-3.24-3.83-5.81-8.3-7.63-13.27-1.82-4.98-2.75-10.3-2.75-15.83,0-4.96.78-9.96,2.32-14.86,1.51-4.86,3.83-9.28,6.86-13.15,3.01-3.84,6.78-6.98,11.2-9.37,6.37-3.42,14.54-4.51,23.27-2.65,2.68.57,5.33,1.55,7.88,2.89,2.54,1.35,4.91,3.14,7.05,5.33,2.14,2.19,4.01,4.96,5.55,8.24l1.3,2.75,15.67-10.15-1.01-2.1c-3.66-7.65-9.33-13.95-16.85-18.71-7.54-4.76-16.63-7.17-27.05-7.17-8.75,0-16.71,1.73-23.66,5.15-6.89,3.39-12.81,7.92-17.59,13.47-4.76,5.53-8.41,11.85-10.87,18.77-2.44,6.92-3.69,13.96-3.69,20.93,0,7.41,1.35,14.79,4.02,21.92,2.67,7.13,6.48,13.6,11.33,19.21,4.86,5.62,10.7,10.24,17.36,13.74.61.32,1.25.55,1.87.84.39.18.79.36,1.18.54,1.19.52,2.4.99,3.62,1.41.82.28,1.65.54,2.48.77,1.25.35,2.53.65,3.82.9.86.17,1.73.31,2.61.43,2.19.3,4.44.45,6.73.45.79,0,1.6-.02,2.4-.05,3.74-.18,7.58-.77,11.47-1.76,4.69-1.2,9.21-2.97,13.43-5.27,1.59-.86,3.12-1.81,4.6-2.83.98-.68,1.94-1.4,2.87-2.14,1.39-1.12,2.73-2.31,3.99-3.58.85-.86,1.66-1.75,2.43-2.67.76-.93,1.48-1.89,2.15-2.88,1.34-2,2.5-4.12,3.46-6.37l.68-1.77-1.67-1.5h.03s-12.03-11.07-12.03-11.07c0,0-1.23,2.83-1.91,4.13-.68,1.29-2.09,3.57-3.08,4.87-1.43,1.88-2.62,3.31-4.18,4.87-.88.88-1.82,1.65-2.75,2.42v-27.53h33.82c1.93,0,3.71.38,5.41,1.17,1.68.77,3.12,1.86,4.27,3.22,1.2,1.44,2.18,3.18,2.91,5.17.73,2.01,1.1,4.19,1.1,6.49,0,2.17-.39,4.24-1.15,6.18-.77,1.95-1.82,3.66-3.11,5.09-1.3,1.43-2.8,2.54-4.61,3.4-1.71.82-3.65,1.23-5.77,1.23h-5.1c-.58,1.03-1.19,2.04-1.84,3.02-1.53,2.27-3.29,4.41-5.24,6.36-2.56,2.56-5.38,4.86-8.39,6.88-.49.33-.28.53-.03.53h25c2.08,0,4.01.44,5.74,1.3,1.77.88,3.31,2.09,4.59,3.59,1.31,1.54,2.37,3.36,3.16,5.42.77,2.05,1.16,4.2,1.16,6.38s-.41,4.25-1.22,6.23c-.8,1.97-1.94,3.72-3.38,5.21-1.46,1.5-3.16,2.71-5.06,3.62-1.82.88-3.87,1.32-6.08,1.32h-36.18v-27.35c-2.18.82-4.41,1.53-6.67,2.11-3.96,1.01-8.06,1.6-12.54,1.82-.08,0-.17.01-.26.02v40.98h55.65c4.78,0,9.34-.74,13.53-2.19,4.22-1.46,8-3.58,11.22-6.29,3.25-2.74,5.86-6.1,7.75-9.99,1.9-3.91,2.86-8.27,2.86-12.96,0-7.46-2.05-14.05-6.09-19.58"/>
  </g>
  <path class="st0" d="M318.97,181.21c-2.26,0-3.86-1.69-3.86-3.93,0-2.36,1.78-3.93,3.86-3.93s3.84,1.56,3.84,3.93-1.78,3.93-3.84,3.93ZM318.97,174.04c-1.7,0-3.02,1.33-3.02,3.24,0,1.78,1.15,3.24,3.02,3.24,1.68,0,3-1.32,3-3.24s-1.32-3.24-3-3.24ZM318.19,179.53h-.71v-4.35h1.65c1.05,0,1.58.37,1.58,1.25,0,.79-.48,1.11-1.13,1.19l1.22,1.91h-.81l-1.12-1.86h-.67v1.86ZM318.99,177.06c.53,0,1.01-.05,1.01-.68,0-.52-.51-.59-.94-.59h-.86v1.27h.8Z"/>
</svg>